<?xml version="1.0" standalone="no"?>
<!DOCTYPE svg PUBLIC "-//W3C//DTD SVG 20010904//EN"
 "http://www.w3.org/TR/2001/REC-SVG-20010904/DTD/svg10.dtd">
<svg version="1.0" xmlns="http://www.w3.org/2000/svg"
 width="700.000000pt" height="700.000000pt" viewBox="0 0 700.000000 700.000000"
 preserveAspectRatio="xMidYMid meet">
<metadata>
Created by potrace 1.14, written by Peter Selinger 2001-2017
</metadata>
<g transform="translate(0.000000,700.000000) scale(0.100000,-0.100000)"
fill="#000000" stroke="none">
<path d="M632 5946 c12 -17 25 -33 28 -36 3 -3 18 -23 34 -45 16 -22 34 -45
40 -50 6 -6 22 -26 36 -45 13 -19 28 -39 32 -45 5 -5 36 -46 69 -90 34 -44 70
-91 80 -105 11 -14 85 -110 164 -215 193 -252 343 -449 432 -565 40 -52 123
-160 183 -240 61 -80 116 -152 123 -160 7 -9 41 -54 77 -100 35 -47 68 -89 73
-95 4 -5 35 -46 68 -90 33 -44 68 -89 77 -100 9 -12 80 -104 156 -205 77 -102
142 -187 145 -190 4 -3 19 -23 36 -45 16 -22 35 -46 42 -53 7 -7 13 -17 13
-20 0 -4 11 -19 25 -34 l24 -26 -77 -100 c-68 -88 -318 -415 -617 -807 -55
-72 -192 -251 -305 -399 -271 -354 -539 -705 -570 -746 -41 -54 -279 -364
-287 -375 -7 -8 -77 -100 -114 -150 -6 -8 274 -11 907 -11 773 0 914 2 910 13
-3 8 -2 12 3 9 5 -3 17 6 27 20 11 15 24 31 29 38 13 13 143 184 277 361 55
72 104 137 111 145 7 8 70 92 142 185 71 94 131 172 134 175 4 3 25 30 47 60
51 68 441 579 457 600 7 8 69 89 137 180 69 91 127 167 130 170 3 3 64 82 135
175 71 94 131 172 134 175 4 3 53 67 110 143 l104 137 -74 98 c-40 53 -76 99
-79 102 -3 3 -48 61 -100 130 -52 69 -182 240 -290 380 -107 140 -222 290
-255 334 -33 43 -124 162 -203 264 -78 103 -202 265 -275 360 -72 96 -179 236
-237 311 -218 286 -282 369 -372 486 l-94 120 -911 1 -912 1 21 -31z"/>
<path d="M4320 5656 c-135 -176 -289 -377 -342 -447 l-96 -126 36 -51 c34 -46
441 -578 469 -612 6 -8 36 -47 65 -86 92 -122 302 -396 323 -421 l20 -25 67
89 c36 48 116 153 178 233 61 80 120 156 130 170 10 14 169 221 352 460 183
239 367 480 408 535 41 55 77 102 80 105 6 5 110 141 265 345 54 72 102 135
107 141 6 9 -228 11 -904 11 l-913 0 -245 -321z"/>
</g>
</svg>
