<svg id="logosandtypes_com" xmlns="http://www.w3.org/2000/svg" viewBox="0 0 150 150"><style>.st1{fill:#4b9405}</style><path d="M0 0h150v150H0V0z" fill="none" id="Layer_3"/><g id="yesterday"><path class="st1" d="M111.3 11.8L75 48.7 38.7 11.8 14.6 36l43.7 43.2v52.4h33.4V79.2L135.4 36z"/><path id="path3040_1_" d="M14.6 36l24.2-24.2L75 48.7H32.4L14.6 36z" fill="#73c908"/><path id="path3042_1_" d="M75 48.7l36.3-36.8L135.4 36 113 48.7H75z" fill="#b3fa0a"/><path id="path3036_1_" d="M58.3 79.2L14.6 36 75 48.7v30.5H58.3z" fill="#387305"/><path id="path3038_1_" d="M75 79.2V48.7L135.4 36 91.7 79.2H75z" fill="#4e9d04"/><path id="path3032_1_" d="M58.3 131.6V79.2L75 48.7v77.7l-16.7 5.2z" fill="#295001"/><path id="path3034_1_" d="M91.7 131.6L75 126.4V48.7l16.7 30.5v52.4" fill="#8cdf07"/><path id="path3030_1_" class="st1" d="M58.3 131.6L75 48.7l16.7 82.9H58.3z"/></g></svg>