<svg xmlns="http://www.w3.org/2000/svg" xmlns:xlink="http://www.w3.org/1999/xlink" viewBox="0 0 414 414"><defs><style>.cls-1{fill:url(#Безымянный_градиент_58);}.cls-2{fill:url(#Безымянный_градиент_57);}.cls-3{fill:url(#Безымянный_градиент_29);}.cls-4{fill:url(#Безымянный_градиент_22);}.cls-5{fill:url(#Безымянный_градиент_59);}.cls-6{fill:url(#Безымянный_градиент_58-2);}.cls-7{fill:none;}</style><linearGradient id="Безымянный_градиент_58" x1="325.81" y1="59.49" x2="236.69" y2="109" gradientUnits="userSpaceOnUse"><stop offset="0" stop-color="#ffce3a"/><stop offset="1" stop-color="#ffc107"/></linearGradient><linearGradient id="Безымянный_градиент_57" x1="370.24" y1="67.08" x2="260.51" y2="145.89" gradientUnits="userSpaceOnUse"><stop offset="0" stop-color="#d39e00"/><stop offset="0.93" stop-color="#fcbe06"/><stop offset="1" stop-color="#ffc107"/></linearGradient><linearGradient id="Безымянный_градиент_29" x1="53.22" y1="35.33" x2="277.78" y2="188.97" gradientUnits="userSpaceOnUse"><stop offset="0" stop-color="#ffce3a"/><stop offset="0.81" stop-color="#ffc411"/><stop offset="1" stop-color="#ffc107"/></linearGradient><linearGradient id="Безымянный_градиент_22" x1="33.71" y1="94.95" x2="209.73" y2="215.37" gradientUnits="userSpaceOnUse"><stop offset="0" stop-color="#ffc107"/><stop offset="0.07" stop-color="#fcbe06"/><stop offset="1" stop-color="#d39e00"/></linearGradient><linearGradient id="Безымянный_градиент_59" x1="145.87" y1="293.12" x2="92.17" y2="363.64" gradientUnits="userSpaceOnUse"><stop offset="0" stop-color="#d39e00"/><stop offset="1" stop-color="#ffc107"/></linearGradient><linearGradient id="Безымянный_градиент_58-2" x1="253.3" y1="219.66" x2="152.87" y2="287.07" xlink:href="#Безымянный_градиент_58"/></defs><g id="Слой_2" data-name="Слой 2"><g id="Rigth"><polygon id="Right_top" data-name="Right top" class="cls-1" points="378 60.5 229.5 113.46 270 60.5 378 60.5"/><polygon id="Right_buttom" data-name="Right buttom" class="cls-2" points="283.5 184.08 229.5 113.46 378 60.5 283.5 184.08"/></g><g id="Left"><polygon id="Left_top_righr" data-name="Left top righr" class="cls-3" points="36 60.5 144 60.5 261 213.5 36 60.5"/><polygon id="Left_top_left" data-name="Left top left" class="cls-4" points="153 213.5 36 60.5 261 213.5 153 213.5"/><polygon id="Left_buttom_left" data-name="Left buttom left" class="cls-5" points="36 366.5 153 213.5 144 366.5 36 366.5"/><polygon id="Left_bottom_right" data-name="Left bottom right" class="cls-6" points="144 366.5 261 213.5 153 213.5 144 366.5"/></g><g id="Внешний_контур" data-name="Внешний контур"><rect class="cls-7" width="414" height="414"/></g></g></svg>