<svg xmlns="http://www.w3.org/2000/svg" viewBox="0 0 18.74 25.93"><defs><style>.cls-1{fill:#f8f9fa;}</style></defs><g id="Слой_2" data-name="Слой 2"><g id="Слой_1-2" data-name="Слой 1"><path class="cls-1" d="M0,8.19a7.5,7.5,0,0,1,2.61-5.9A9.85,9.85,0,0,1,9.37,0a9.88,9.88,0,0,1,6.5,2.07,6.5,6.5,0,0,1,2.52,5.26A7.15,7.15,0,0,1,18,9.54,7.64,7.64,0,0,1,17,11.66a19.41,19.41,0,0,1-1.5,1.92c-.5.57-1.16,1.26-2,2.06l-6.19,6v.11H18.74v4.22H.3V22.36l9.56-9.21A19,19,0,0,0,12.51,10a4.81,4.81,0,0,0,.71-2.5,3.06,3.06,0,0,0-1.14-2.42,4.28,4.28,0,0,0-2.89-1A4.26,4.26,0,0,0,6.13,5.28,3.88,3.88,0,0,0,4.92,8.19v.09H0Z"/></g></g></svg>