<svg xmlns="http://www.w3.org/2000/svg" viewBox="0 0 19.71 26.49"><defs><style>.cls-1{fill:#f8f9fa;}</style></defs><g id="Слой_2" data-name="Слой 2"><g id="Слой_1-2" data-name="Слой 1"><path class="cls-1" d="M6.57,14.85V11H9.65a4.33,4.33,0,0,0,2.94-1,3.24,3.24,0,0,0,1.12-2.55A3.14,3.14,0,0,0,12.64,5a4.52,4.52,0,0,0-3-.92,4.34,4.34,0,0,0-3,1A3.72,3.72,0,0,0,5.38,7.75H.49A7.38,7.38,0,0,1,3.18,2.11,10.09,10.09,0,0,1,9.84,0a10.38,10.38,0,0,1,6.43,1.86,5.89,5.89,0,0,1,2.45,4.91,5.63,5.63,0,0,1-1.44,3.9,6.45,6.45,0,0,1-3.8,2v.11A7.15,7.15,0,0,1,18,14.67a5.63,5.63,0,0,1,1.68,4.24,6.54,6.54,0,0,1-2.79,5.49,11.71,11.71,0,0,1-7.2,2.09,10.56,10.56,0,0,1-6.9-2.14A7.55,7.55,0,0,1,0,18.67H5.08a3.42,3.42,0,0,0,1.38,2.58,5.29,5.29,0,0,0,3.33,1,5,5,0,0,0,3.25-1,3.2,3.2,0,0,0,1.27-2.62,3.31,3.31,0,0,0-1.23-2.73,5.2,5.2,0,0,0-3.38-1Z"/></g></g></svg>